<svg width="1737" height="1738" viewBox="0 0 1737 1738" fill="none" xmlns="http://www.w3.org/2000/svg">
<path d="M868.5 1.5C1347.33 1.5 1735.5 389.894 1735.5 869C1735.5 1348.11 1347.33 1736.5 868.5 1736.5C389.668 1736.5 1.5 1348.11 1.5 869C1.5 389.894 389.668 1.5 868.5 1.5Z" fill="#FAF4ED" stroke="#2065C7" stroke-width="3"/>
<path d="M465.5 1043V269.5H691L867.5 816.5L1045.5 269.5H1271.5V1043H1116.5V461L929 1043H804.5L619.5 461V1043H465.5Z" fill="#2065C7" stroke="#2065C7"/>
<path d="M873 83.5C1307.41 83.5 1659.5 434.996 1659.5 868.5C1659.5 1302 1307.41 1653.5 873 1653.5C438.589 1653.5 86.5 1302 86.5 868.5C86.5 434.996 438.589 83.5 873 83.5Z" stroke="#2065C7" stroke-width="45"/>
<mask id="path-4-outside-1_1_2" maskUnits="userSpaceOnUse" x="437" y="1179" width="873" height="134" fill="black">
<rect fill="white" x="437" y="1179" width="873" height="134"/>
<path d="M438.329 1309V1183H462.449L516.089 1271.92H503.309L556.049 1183H579.989L580.349 1309H552.989L552.809 1224.94H557.849L515.729 1295.68H502.589L459.569 1224.94H465.689V1309H438.329ZM593.683 1309L649.843 1183H678.643L734.983 1309H704.383L658.303 1197.76H669.823L623.563 1309H593.683ZM621.763 1282L629.503 1259.86H694.303L702.223 1282H621.763ZM789.455 1311.16C779.375 1311.16 769.715 1309.84 760.475 1307.2C751.235 1304.44 743.795 1300.9 738.155 1296.58L748.055 1274.62C753.455 1278.46 759.815 1281.64 767.135 1284.16C774.575 1286.56 782.075 1287.76 789.635 1287.76C795.395 1287.76 800.015 1287.22 803.495 1286.14C807.095 1284.94 809.735 1283.32 811.415 1281.28C813.095 1279.24 813.935 1276.9 813.935 1274.26C813.935 1270.9 812.615 1268.26 809.975 1266.34C807.335 1264.3 803.855 1262.68 799.535 1261.48C795.215 1260.16 790.415 1258.96 785.135 1257.88C779.975 1256.68 774.755 1255.24 769.475 1253.56C764.315 1251.88 759.575 1249.72 755.255 1247.08C750.935 1244.44 747.395 1240.96 744.635 1236.64C741.995 1232.32 740.675 1226.8 740.675 1220.08C740.675 1212.88 742.595 1206.34 746.435 1200.46C750.395 1194.46 756.275 1189.72 764.075 1186.24C771.995 1182.64 781.895 1180.84 793.775 1180.84C801.695 1180.84 809.495 1181.8 817.175 1183.72C824.855 1185.52 831.635 1188.28 837.515 1192L828.515 1214.14C822.635 1210.78 816.755 1208.32 810.875 1206.76C804.995 1205.08 799.235 1204.24 793.595 1204.24C787.955 1204.24 783.335 1204.9 779.735 1206.22C776.135 1207.54 773.555 1209.28 771.995 1211.44C770.435 1213.48 769.655 1215.88 769.655 1218.64C769.655 1221.88 770.975 1224.52 773.615 1226.56C776.255 1228.48 779.735 1230.04 784.055 1231.24C788.375 1232.44 793.115 1233.64 798.275 1234.84C803.555 1236.04 808.775 1237.42 813.935 1238.98C819.215 1240.54 824.015 1242.64 828.335 1245.28C832.655 1247.92 836.135 1251.4 838.775 1255.72C841.535 1260.04 842.915 1265.5 842.915 1272.1C842.915 1279.18 840.935 1285.66 836.975 1291.54C833.015 1297.42 827.075 1302.16 819.155 1305.76C811.355 1309.36 801.455 1311.16 789.455 1311.16ZM862.84 1309V1183H892V1285.24H955.18V1309H862.84ZM1030.56 1311.16C1020.6 1311.16 1011.36 1309.54 1002.84 1306.3C994.444 1303.06 987.124 1298.5 980.884 1292.62C974.764 1286.74 969.964 1279.84 966.484 1271.92C963.124 1264 961.444 1255.36 961.444 1246C961.444 1236.64 963.124 1228 966.484 1220.08C969.964 1212.16 974.824 1205.26 981.064 1199.38C987.304 1193.5 994.624 1188.94 1003.02 1185.7C1011.42 1182.46 1020.54 1180.84 1030.38 1180.84C1040.34 1180.84 1049.46 1182.46 1057.74 1185.7C1066.14 1188.94 1073.4 1193.5 1079.52 1199.38C1085.76 1205.26 1090.62 1212.16 1094.1 1220.08C1097.58 1227.88 1099.32 1236.52 1099.32 1246C1099.32 1255.36 1097.58 1264.06 1094.1 1272.1C1090.62 1280.02 1085.76 1286.92 1079.52 1292.8C1073.4 1298.56 1066.14 1303.06 1057.74 1306.3C1049.46 1309.54 1040.4 1311.16 1030.56 1311.16ZM1030.38 1286.32C1036.02 1286.32 1041.18 1285.36 1045.86 1283.44C1050.66 1281.52 1054.86 1278.76 1058.46 1275.16C1062.06 1271.56 1064.82 1267.3 1066.74 1262.38C1068.78 1257.46 1069.8 1252 1069.8 1246C1069.8 1240 1068.78 1234.54 1066.74 1229.62C1064.82 1224.7 1062.06 1220.44 1058.46 1216.84C1054.98 1213.24 1050.84 1210.48 1046.04 1208.56C1041.24 1206.64 1036.02 1205.68 1030.38 1205.68C1024.74 1205.68 1019.52 1206.64 1014.72 1208.56C1010.04 1210.48 1005.9 1213.24 1002.3 1216.84C998.704 1220.44 995.884 1224.7 993.844 1229.62C991.924 1234.54 990.964 1240 990.964 1246C990.964 1251.88 991.924 1257.34 993.844 1262.38C995.884 1267.3 998.644 1271.56 1002.12 1275.16C1005.72 1278.76 1009.92 1281.52 1014.72 1283.44C1019.52 1285.36 1024.74 1286.32 1030.38 1286.32ZM1147.44 1309L1106.22 1183H1136.46L1172.28 1294.6H1157.16L1194.6 1183H1221.6L1257.6 1294.6H1243.02L1279.74 1183H1307.64L1266.42 1309H1235.1L1203.24 1211.08H1211.52L1178.76 1309H1147.44Z"/>
</mask>
<path d="M438.329 1309V1183H462.449L516.089 1271.92H503.309L556.049 1183H579.989L580.349 1309H552.989L552.809 1224.94H557.849L515.729 1295.68H502.589L459.569 1224.94H465.689V1309H438.329ZM593.683 1309L649.843 1183H678.643L734.983 1309H704.383L658.303 1197.76H669.823L623.563 1309H593.683ZM621.763 1282L629.503 1259.86H694.303L702.223 1282H621.763ZM789.455 1311.16C779.375 1311.16 769.715 1309.84 760.475 1307.2C751.235 1304.44 743.795 1300.9 738.155 1296.58L748.055 1274.62C753.455 1278.46 759.815 1281.64 767.135 1284.16C774.575 1286.56 782.075 1287.76 789.635 1287.76C795.395 1287.76 800.015 1287.22 803.495 1286.14C807.095 1284.94 809.735 1283.32 811.415 1281.28C813.095 1279.24 813.935 1276.9 813.935 1274.26C813.935 1270.9 812.615 1268.26 809.975 1266.34C807.335 1264.3 803.855 1262.68 799.535 1261.48C795.215 1260.16 790.415 1258.96 785.135 1257.88C779.975 1256.68 774.755 1255.24 769.475 1253.56C764.315 1251.88 759.575 1249.72 755.255 1247.08C750.935 1244.44 747.395 1240.96 744.635 1236.64C741.995 1232.32 740.675 1226.8 740.675 1220.08C740.675 1212.88 742.595 1206.34 746.435 1200.46C750.395 1194.46 756.275 1189.72 764.075 1186.24C771.995 1182.64 781.895 1180.84 793.775 1180.84C801.695 1180.84 809.495 1181.8 817.175 1183.72C824.855 1185.52 831.635 1188.28 837.515 1192L828.515 1214.14C822.635 1210.78 816.755 1208.32 810.875 1206.76C804.995 1205.08 799.235 1204.24 793.595 1204.24C787.955 1204.24 783.335 1204.9 779.735 1206.22C776.135 1207.54 773.555 1209.28 771.995 1211.44C770.435 1213.48 769.655 1215.88 769.655 1218.64C769.655 1221.88 770.975 1224.52 773.615 1226.56C776.255 1228.48 779.735 1230.04 784.055 1231.24C788.375 1232.44 793.115 1233.64 798.275 1234.84C803.555 1236.04 808.775 1237.42 813.935 1238.98C819.215 1240.54 824.015 1242.64 828.335 1245.28C832.655 1247.92 836.135 1251.4 838.775 1255.72C841.535 1260.04 842.915 1265.5 842.915 1272.1C842.915 1279.18 840.935 1285.66 836.975 1291.54C833.015 1297.42 827.075 1302.16 819.155 1305.76C811.355 1309.36 801.455 1311.16 789.455 1311.16ZM862.84 1309V1183H892V1285.24H955.18V1309H862.84ZM1030.56 1311.16C1020.6 1311.16 1011.36 1309.54 1002.84 1306.3C994.444 1303.06 987.124 1298.5 980.884 1292.62C974.764 1286.74 969.964 1279.84 966.484 1271.92C963.124 1264 961.444 1255.36 961.444 1246C961.444 1236.64 963.124 1228 966.484 1220.08C969.964 1212.16 974.824 1205.26 981.064 1199.38C987.304 1193.5 994.624 1188.94 1003.02 1185.7C1011.42 1182.46 1020.54 1180.84 1030.38 1180.84C1040.34 1180.84 1049.46 1182.46 1057.74 1185.7C1066.14 1188.94 1073.4 1193.5 1079.52 1199.38C1085.76 1205.26 1090.62 1212.16 1094.1 1220.08C1097.58 1227.88 1099.32 1236.52 1099.32 1246C1099.32 1255.36 1097.58 1264.06 1094.1 1272.1C1090.62 1280.02 1085.76 1286.92 1079.52 1292.8C1073.4 1298.56 1066.14 1303.06 1057.74 1306.3C1049.46 1309.54 1040.4 1311.16 1030.56 1311.16ZM1030.38 1286.32C1036.02 1286.32 1041.18 1285.36 1045.86 1283.44C1050.66 1281.52 1054.86 1278.76 1058.46 1275.16C1062.06 1271.56 1064.82 1267.3 1066.74 1262.38C1068.78 1257.46 1069.8 1252 1069.8 1246C1069.8 1240 1068.78 1234.54 1066.74 1229.62C1064.82 1224.7 1062.06 1220.44 1058.46 1216.84C1054.98 1213.24 1050.84 1210.48 1046.04 1208.56C1041.24 1206.64 1036.02 1205.68 1030.38 1205.68C1024.74 1205.68 1019.52 1206.64 1014.72 1208.56C1010.04 1210.48 1005.9 1213.24 1002.3 1216.84C998.704 1220.44 995.884 1224.7 993.844 1229.62C991.924 1234.54 990.964 1240 990.964 1246C990.964 1251.88 991.924 1257.34 993.844 1262.38C995.884 1267.3 998.644 1271.56 1002.12 1275.16C1005.72 1278.76 1009.92 1281.52 1014.72 1283.44C1019.52 1285.36 1024.74 1286.32 1030.38 1286.32ZM1147.44 1309L1106.22 1183H1136.46L1172.28 1294.6H1157.16L1194.6 1183H1221.6L1257.6 1294.6H1243.02L1279.74 1183H1307.64L1266.42 1309H1235.1L1203.24 1211.08H1211.52L1178.76 1309H1147.44Z" fill="#2065C7"/>
<path d="M438.329 1309H437.329V1310H438.329V1309ZM438.329 1183V1182H437.329V1183H438.329ZM462.449 1183L463.305 1182.48L463.013 1182H462.449V1183ZM516.089 1271.92V1272.92H517.86L516.945 1271.4L516.089 1271.92ZM503.309 1271.92L502.449 1271.41L501.553 1272.92H503.309V1271.92ZM556.049 1183V1182H555.479L555.189 1182.49L556.049 1183ZM579.989 1183L580.989 1183L580.986 1182H579.989V1183ZM580.349 1309V1310H581.352L581.349 1309L580.349 1309ZM552.989 1309L551.989 1309L551.991 1310H552.989V1309ZM552.809 1224.94V1223.94H551.807L551.809 1224.94L552.809 1224.94ZM557.849 1224.94L558.708 1225.45L559.608 1223.94H557.849V1224.94ZM515.729 1295.68V1296.68H516.297L516.588 1296.19L515.729 1295.68ZM502.589 1295.68L501.734 1296.2L502.026 1296.68H502.589V1295.68ZM459.569 1224.94V1223.94H457.79L458.714 1225.46L459.569 1224.94ZM465.689 1224.94H466.689V1223.94H465.689V1224.94ZM465.689 1309V1310H466.689V1309H465.689ZM438.329 1309H439.329V1183H438.329H437.329V1309H438.329ZM438.329 1183V1184H462.449V1183V1182H438.329V1183ZM462.449 1183L461.592 1183.52L515.232 1272.44L516.089 1271.92L516.945 1271.4L463.305 1182.48L462.449 1183ZM516.089 1271.92V1270.92H503.309V1271.92V1272.92H516.089V1271.92ZM503.309 1271.92L504.169 1272.43L556.909 1183.51L556.049 1183L555.189 1182.49L502.449 1271.41L503.309 1271.92ZM556.049 1183V1184H579.989V1183V1182H556.049V1183ZM579.989 1183L578.989 1183L579.349 1309L580.349 1309L581.349 1309L580.989 1183L579.989 1183ZM580.349 1309V1308H552.989V1309V1310H580.349V1309ZM552.989 1309L553.989 1309L553.809 1224.94L552.809 1224.94L551.809 1224.94L551.989 1309L552.989 1309ZM552.809 1224.94V1225.94H557.849V1224.94V1223.94H552.809V1224.94ZM557.849 1224.94L556.989 1224.43L514.869 1295.17L515.729 1295.68L516.588 1296.19L558.708 1225.45L557.849 1224.94ZM515.729 1295.68V1294.68H502.589V1295.68V1296.68H515.729V1295.68ZM502.589 1295.68L503.443 1295.16L460.423 1224.42L459.569 1224.94L458.714 1225.46L501.734 1296.2L502.589 1295.68ZM459.569 1224.94V1225.94H465.689V1224.94V1223.94H459.569V1224.94ZM465.689 1224.94H464.689V1309H465.689H466.689V1224.94H465.689ZM465.689 1309V1308H438.329V1309V1310H465.689V1309ZM593.683 1309L592.769 1308.59L592.142 1310H593.683V1309ZM649.843 1183V1182H649.194L648.929 1182.59L649.843 1183ZM678.643 1183L679.556 1182.59L679.291 1182H678.643V1183ZM734.983 1309V1310H736.525L735.896 1308.59L734.983 1309ZM704.383 1309L703.459 1309.38L703.715 1310H704.383V1309ZM658.303 1197.76V1196.76H656.806L657.379 1198.14L658.303 1197.76ZM669.823 1197.76L670.746 1198.14L671.322 1196.76H669.823V1197.76ZM623.563 1309V1310H624.23L624.486 1309.38L623.563 1309ZM621.763 1282L620.819 1281.67L620.354 1283H621.763V1282ZM629.503 1259.86V1258.86H628.793L628.559 1259.53L629.503 1259.86ZM694.303 1259.86L695.244 1259.52L695.007 1258.86H694.303V1259.86ZM702.223 1282V1283H703.643L703.164 1281.66L702.223 1282ZM593.683 1309L594.596 1309.41L650.756 1183.41L649.843 1183L648.929 1182.59L592.769 1308.59L593.683 1309ZM649.843 1183V1184H678.643V1183V1182H649.843V1183ZM678.643 1183L677.73 1183.41L734.07 1309.41L734.983 1309L735.896 1308.59L679.556 1182.59L678.643 1183ZM734.983 1309V1308H704.383V1309V1310H734.983V1309ZM704.383 1309L705.307 1308.62L659.227 1197.38L658.303 1197.76L657.379 1198.14L703.459 1309.38L704.383 1309ZM658.303 1197.76V1198.76H669.823V1197.76V1196.76H658.303V1197.76ZM669.823 1197.76L668.899 1197.38L622.639 1308.62L623.563 1309L624.486 1309.38L670.746 1198.14L669.823 1197.76ZM623.563 1309V1308H593.683V1309V1310H623.563V1309ZM621.763 1282L622.707 1282.33L630.447 1260.19L629.503 1259.86L628.559 1259.53L620.819 1281.67L621.763 1282ZM629.503 1259.86V1260.86H694.303V1259.86V1258.86H629.503V1259.86ZM694.303 1259.86L693.361 1260.2L701.281 1282.34L702.223 1282L703.164 1281.66L695.244 1259.52L694.303 1259.86ZM702.223 1282V1281H621.763V1282V1283H702.223V1282ZM760.475 1307.2L760.189 1308.16L760.201 1308.16L760.475 1307.2ZM738.155 1296.58L737.244 1296.17L736.918 1296.89L737.547 1297.37L738.155 1296.58ZM748.055 1274.62L748.635 1273.81L747.643 1273.1L747.144 1274.21L748.055 1274.62ZM767.135 1284.16L766.81 1285.11L766.819 1285.11L766.828 1285.11L767.135 1284.16ZM803.495 1286.14L803.792 1287.1L803.802 1287.09L803.811 1287.09L803.495 1286.14ZM811.415 1281.28L810.643 1280.64V1280.64L811.415 1281.28ZM809.975 1266.34L809.364 1267.13L809.375 1267.14L809.387 1267.15L809.975 1266.34ZM799.535 1261.48L799.243 1262.44L799.255 1262.44L799.268 1262.44L799.535 1261.48ZM785.135 1257.88L784.909 1258.85L784.922 1258.86L784.935 1258.86L785.135 1257.88ZM769.475 1253.56L769.166 1254.51L769.172 1254.51L769.475 1253.56ZM755.255 1247.08L754.734 1247.93V1247.93L755.255 1247.08ZM744.635 1236.64L743.782 1237.16L743.787 1237.17L743.793 1237.18L744.635 1236.64ZM746.435 1200.46L745.601 1199.91L745.598 1199.91L746.435 1200.46ZM764.075 1186.24L764.483 1187.15L764.489 1187.15L764.075 1186.24ZM817.175 1183.72L816.933 1184.69L816.94 1184.69L816.947 1184.69L817.175 1183.72ZM837.515 1192L838.442 1192.38L838.757 1191.6L838.05 1191.15L837.515 1192ZM828.515 1214.14L828.019 1215.01L829.011 1215.58L829.442 1214.52L828.515 1214.14ZM810.875 1206.76L810.601 1207.72L810.61 1207.72L810.619 1207.73L810.875 1206.76ZM779.735 1206.22L779.391 1205.28V1205.28L779.735 1206.22ZM771.995 1211.44L772.79 1212.05L772.798 1212.04L772.806 1212.03L771.995 1211.44ZM773.615 1226.56L773.004 1227.35L773.015 1227.36L773.027 1227.37L773.615 1226.56ZM784.055 1231.24L783.788 1232.2V1232.2L784.055 1231.24ZM798.275 1234.84L798.049 1235.81L798.054 1235.82L798.275 1234.84ZM813.935 1238.98L813.646 1239.94L813.652 1239.94L813.935 1238.98ZM828.335 1245.28L828.857 1244.43V1244.43L828.335 1245.28ZM838.775 1255.72L837.922 1256.24L837.927 1256.25L837.933 1256.26L838.775 1255.72ZM836.975 1291.54L837.805 1292.1V1292.1L836.975 1291.54ZM819.155 1305.76L818.741 1304.85L818.736 1304.85L819.155 1305.76ZM789.455 1311.16V1310.16C779.464 1310.16 769.896 1308.85 760.75 1306.24L760.475 1307.2L760.201 1308.16C769.534 1310.83 779.287 1312.16 789.455 1312.16V1311.16ZM760.475 1307.2L760.761 1306.24C751.599 1303.5 744.279 1300.01 738.763 1295.79L738.155 1296.58L737.547 1297.37C743.311 1301.79 750.872 1305.38 760.189 1308.16L760.475 1307.2ZM738.155 1296.58L739.067 1296.99L748.967 1275.03L748.055 1274.62L747.144 1274.21L737.244 1296.17L738.155 1296.58ZM748.055 1274.62L747.476 1275.43C752.966 1279.34 759.414 1282.56 766.81 1285.11L767.135 1284.16L767.461 1283.21C760.216 1280.72 753.945 1277.58 748.635 1273.81L748.055 1274.62ZM767.135 1284.16L766.828 1285.11C774.364 1287.54 781.967 1288.76 789.635 1288.76V1287.76V1286.76C782.183 1286.76 774.786 1285.58 767.442 1283.21L767.135 1284.16ZM789.635 1287.76V1288.76C795.445 1288.76 800.177 1288.22 803.792 1287.1L803.495 1286.14L803.199 1285.18C799.854 1286.22 795.346 1286.76 789.635 1286.76V1287.76ZM803.495 1286.14L803.811 1287.09C807.516 1285.85 810.346 1284.15 812.187 1281.92L811.415 1281.28L810.643 1280.64C809.124 1282.49 806.674 1284.03 803.179 1285.19L803.495 1286.14ZM811.415 1281.28L812.187 1281.92C814.014 1279.7 814.935 1277.13 814.935 1274.26H813.935H812.935C812.935 1276.67 812.176 1278.78 810.643 1280.64L811.415 1281.28ZM813.935 1274.26H814.935C814.935 1270.59 813.471 1267.65 810.563 1265.53L809.975 1266.34L809.387 1267.15C811.759 1268.87 812.935 1271.21 812.935 1274.26H813.935ZM809.975 1266.34L810.587 1265.55C807.816 1263.41 804.207 1261.74 799.803 1260.52L799.535 1261.48L799.268 1262.44C803.503 1263.62 806.855 1265.19 809.364 1267.13L809.975 1266.34ZM799.535 1261.48L799.827 1260.52C795.472 1259.19 790.641 1257.99 785.336 1256.9L785.135 1257.88L784.935 1258.86C790.19 1259.93 794.958 1261.13 799.243 1262.44L799.535 1261.48ZM785.135 1257.88L785.362 1256.91C780.229 1255.71 775.034 1254.28 769.778 1252.61L769.475 1253.56L769.172 1254.51C774.476 1256.2 779.722 1257.65 784.909 1258.85L785.135 1257.88ZM769.475 1253.56L769.785 1252.61C764.694 1250.95 760.026 1248.82 755.777 1246.23L755.255 1247.08L754.734 1247.93C759.125 1250.62 763.937 1252.81 769.166 1254.51L769.475 1253.56ZM755.255 1247.08L755.777 1246.23C751.588 1243.67 748.157 1240.3 745.478 1236.1L744.635 1236.64L743.793 1237.18C746.633 1241.62 750.283 1245.21 754.734 1247.93L755.255 1247.08ZM744.635 1236.64L745.489 1236.12C742.971 1232 741.675 1226.67 741.675 1220.08H740.675H739.675C739.675 1226.93 741.019 1232.64 743.782 1237.16L744.635 1236.64ZM740.675 1220.08H741.675C741.675 1213.07 743.542 1206.72 747.272 1201.01L746.435 1200.46L745.598 1199.91C741.649 1205.96 739.675 1212.69 739.675 1220.08H740.675ZM746.435 1200.46L747.27 1201.01C751.107 1195.2 756.824 1190.57 764.483 1187.15L764.075 1186.24L763.668 1185.33C755.727 1188.87 749.684 1193.72 745.601 1199.91L746.435 1200.46ZM764.075 1186.24L764.489 1187.15C772.241 1183.63 781.989 1181.84 793.775 1181.84V1180.84V1179.84C781.802 1179.84 771.75 1181.65 763.661 1185.33L764.075 1186.24ZM793.775 1180.84V1181.84C801.614 1181.84 809.332 1182.79 816.933 1184.69L817.175 1183.72L817.418 1182.75C809.658 1180.81 801.777 1179.84 793.775 1179.84V1180.84ZM817.175 1183.72L816.947 1184.69C824.533 1186.47 831.207 1189.19 836.981 1192.85L837.515 1192L838.05 1191.15C832.064 1187.37 825.178 1184.57 817.403 1182.75L817.175 1183.72ZM837.515 1192L836.589 1191.62L827.589 1213.76L828.515 1214.14L829.442 1214.52L838.442 1192.38L837.515 1192ZM828.515 1214.14L829.011 1213.27C823.064 1209.87 817.104 1207.38 811.132 1205.79L810.875 1206.76L810.619 1207.73C816.406 1209.26 822.206 1211.69 828.019 1215.01L828.515 1214.14ZM810.875 1206.76L811.15 1205.8C805.188 1204.1 799.336 1203.24 793.595 1203.24V1204.24V1205.24C799.135 1205.24 804.802 1206.06 810.601 1207.72L810.875 1206.76ZM793.595 1204.24V1203.24C787.888 1203.24 783.14 1203.91 779.391 1205.28L779.735 1206.22L780.079 1207.16C783.53 1205.89 788.023 1205.24 793.595 1205.24V1204.24ZM779.735 1206.22L779.391 1205.28C775.682 1206.64 772.902 1208.48 771.185 1210.85L771.995 1211.44L772.806 1212.03C774.208 1210.08 776.588 1208.44 780.079 1207.16L779.735 1206.22ZM771.995 1211.44L771.201 1210.83C769.497 1213.06 768.655 1215.68 768.655 1218.64H769.655H770.655C770.655 1216.08 771.373 1213.9 772.79 1212.05L771.995 1211.44ZM769.655 1218.64H768.655C768.655 1222.2 770.127 1225.13 773.004 1227.35L773.615 1226.56L774.227 1225.77C771.823 1223.91 770.655 1221.56 770.655 1218.64H769.655ZM773.615 1226.56L773.027 1227.37C775.793 1229.38 779.392 1230.98 783.788 1232.2L784.055 1231.24L784.323 1230.28C780.078 1229.1 776.718 1227.58 774.203 1225.75L773.615 1226.56ZM784.055 1231.24L783.788 1232.2C788.123 1233.41 792.877 1234.61 798.049 1235.81L798.275 1234.84L798.502 1233.87C793.353 1232.67 788.627 1231.47 784.323 1230.28L784.055 1231.24ZM798.275 1234.84L798.054 1235.82C803.311 1237.01 808.508 1238.38 813.646 1239.94L813.935 1238.98L814.225 1238.02C809.042 1236.46 803.8 1235.07 798.497 1233.86L798.275 1234.84ZM813.935 1238.98L813.652 1239.94C818.855 1241.48 823.574 1243.54 827.814 1246.13L828.335 1245.28L828.857 1244.43C824.456 1241.74 819.575 1239.6 814.219 1238.02L813.935 1238.98ZM828.335 1245.28L827.814 1246.13C831.998 1248.69 835.365 1252.06 837.922 1256.24L838.775 1255.72L839.629 1255.2C836.906 1250.74 833.312 1247.15 828.857 1244.43L828.335 1245.28ZM838.775 1255.72L837.933 1256.26C840.564 1260.38 841.915 1265.64 841.915 1272.1H842.915H843.915C843.915 1265.36 842.506 1259.7 839.618 1255.18L838.775 1255.72ZM842.915 1272.1H841.915C841.915 1278.98 839.995 1285.27 836.146 1290.98L836.975 1291.54L837.805 1292.1C841.876 1286.05 843.915 1279.38 843.915 1272.1H842.915ZM836.975 1291.54L836.146 1290.98C832.31 1296.68 826.531 1301.31 818.741 1304.85L819.155 1305.76L819.569 1306.67C827.619 1303.01 833.72 1298.16 837.805 1292.1L836.975 1291.54ZM819.155 1305.76L818.736 1304.85C811.109 1308.37 801.364 1310.16 789.455 1310.16V1311.16V1312.16C801.546 1312.16 811.602 1310.35 819.574 1306.67L819.155 1305.76ZM862.84 1309H861.84V1310H862.84V1309ZM862.84 1183V1182H861.84V1183H862.84ZM892 1183H893V1182H892V1183ZM892 1285.24H891V1286.24H892V1285.24ZM955.18 1285.24H956.18V1284.24H955.18V1285.24ZM955.18 1309V1310H956.18V1309H955.18ZM862.84 1309H863.84V1183H862.84H861.84V1309H862.84ZM862.84 1183V1184H892V1183V1182H862.84V1183ZM892 1183H891V1285.24H892H893V1183H892ZM892 1285.24V1286.24H955.18V1285.24V1284.24H892V1285.24ZM955.18 1285.24H954.18V1309H955.18H956.18V1285.24H955.18ZM955.18 1309V1308H862.84V1309V1310H955.18V1309ZM1002.84 1306.3L1002.48 1307.23L1002.49 1307.23L1002.84 1306.3ZM980.884 1292.62L980.191 1293.34L980.198 1293.35L980.884 1292.62ZM966.484 1271.92L965.563 1272.31L965.568 1272.32L966.484 1271.92ZM966.484 1220.08L965.568 1219.68L965.563 1219.69L966.484 1220.08ZM1003.02 1185.7L1002.66 1184.77V1184.77L1003.02 1185.7ZM1057.74 1185.7L1057.38 1186.63L1057.38 1186.63L1057.74 1185.7ZM1079.52 1199.38L1078.83 1200.1L1078.84 1200.11L1079.52 1199.38ZM1094.1 1220.08L1093.19 1220.48L1093.19 1220.49L1094.1 1220.08ZM1094.1 1272.1L1095.02 1272.5L1095.02 1272.5L1094.1 1272.1ZM1079.52 1292.8L1080.21 1293.53L1080.21 1293.53L1079.52 1292.8ZM1057.74 1306.3L1057.38 1305.37L1057.38 1305.37L1057.74 1306.3ZM1045.86 1283.44L1045.49 1282.51L1045.48 1282.51L1045.86 1283.44ZM1058.46 1275.16L1057.76 1274.45V1274.45L1058.46 1275.16ZM1066.74 1262.38L1065.82 1262L1065.82 1262.01L1065.81 1262.02L1066.74 1262.38ZM1066.74 1229.62L1065.81 1229.98L1065.82 1229.99L1065.82 1230L1066.74 1229.62ZM1058.46 1216.84L1057.74 1217.54L1057.75 1217.54L1057.76 1217.55L1058.46 1216.84ZM1046.04 1208.56L1045.67 1209.49V1209.49L1046.04 1208.56ZM1014.72 1208.56L1014.35 1207.63L1014.34 1207.63L1014.72 1208.56ZM1002.3 1216.84L1003.01 1217.55V1217.55L1002.3 1216.84ZM993.844 1229.62L992.92 1229.24L992.916 1229.25L992.912 1229.26L993.844 1229.62ZM993.844 1262.38L992.909 1262.74L992.915 1262.75L992.92 1262.76L993.844 1262.38ZM1002.12 1275.16L1001.4 1275.86L1001.41 1275.86L1001.42 1275.87L1002.12 1275.16ZM1014.72 1283.44L1014.35 1284.37V1284.37L1014.72 1283.44ZM1030.56 1311.16V1310.16C1020.71 1310.16 1011.6 1308.56 1003.2 1305.37L1002.84 1306.3L1002.49 1307.23C1011.13 1310.52 1020.49 1312.16 1030.56 1312.16V1311.16ZM1002.84 1306.3L1003.2 1305.37C994.918 1302.17 987.711 1297.68 981.57 1291.89L980.884 1292.62L980.198 1293.35C986.537 1299.32 993.969 1303.95 1002.48 1307.23L1002.84 1306.3ZM980.884 1292.62L981.577 1291.9C975.553 1286.11 970.828 1279.32 967.399 1271.52L966.484 1271.92L965.568 1272.32C969.1 1280.36 973.975 1287.37 980.191 1293.34L980.884 1292.62ZM966.484 1271.92L967.404 1271.53C964.101 1263.74 962.444 1255.24 962.444 1246H961.444H960.444C960.444 1255.48 962.146 1264.26 965.563 1272.31L966.484 1271.92ZM961.444 1246H962.444C962.444 1236.76 964.101 1228.26 967.404 1220.47L966.484 1220.08L965.563 1219.69C962.146 1227.74 960.444 1236.52 960.444 1246H961.444ZM966.484 1220.08L967.399 1220.48C970.826 1212.68 975.608 1205.89 981.75 1200.11L981.064 1199.38L980.378 1198.65C974.039 1204.63 969.102 1211.64 965.568 1219.68L966.484 1220.08ZM981.064 1199.38L981.75 1200.11C987.891 1194.32 995.098 1189.83 1003.38 1186.63L1003.02 1185.7L1002.66 1184.77C994.149 1188.05 986.717 1192.68 980.378 1198.65L981.064 1199.38ZM1003.02 1185.7L1003.38 1186.63C1011.66 1183.44 1020.66 1181.84 1030.38 1181.84V1180.84V1179.84C1020.43 1179.84 1011.19 1181.48 1002.66 1184.77L1003.02 1185.7ZM1030.38 1180.84V1181.84C1040.23 1181.84 1049.23 1183.44 1057.38 1186.63L1057.74 1185.7L1058.11 1184.77C1049.7 1181.48 1040.45 1179.84 1030.38 1179.84V1180.84ZM1057.74 1185.7L1057.38 1186.63C1065.67 1189.83 1072.81 1194.32 1078.83 1200.1L1079.52 1199.38L1080.22 1198.66C1074 1192.68 1066.62 1188.05 1058.1 1184.77L1057.74 1185.7ZM1079.52 1199.38L1078.84 1200.11C1084.98 1205.89 1089.76 1212.68 1093.19 1220.48L1094.1 1220.08L1095.02 1219.68C1091.49 1211.64 1086.55 1204.63 1080.21 1198.65L1079.52 1199.38ZM1094.1 1220.08L1093.19 1220.49C1096.61 1228.15 1098.32 1236.64 1098.32 1246H1099.32H1100.32C1100.32 1236.4 1098.56 1227.61 1095.02 1219.67L1094.1 1220.08ZM1099.32 1246H1098.32C1098.32 1255.23 1096.61 1263.8 1093.19 1271.7L1094.1 1272.1L1095.02 1272.5C1098.56 1264.32 1100.32 1255.49 1100.32 1246H1099.32ZM1094.1 1272.1L1093.19 1271.7C1089.76 1279.5 1084.98 1286.29 1078.84 1292.07L1079.52 1292.8L1080.21 1293.53C1086.55 1287.55 1091.49 1280.54 1095.02 1272.5L1094.1 1272.1ZM1079.52 1292.8L1078.84 1292.07C1072.82 1297.74 1065.67 1302.17 1057.38 1305.37L1057.74 1306.3L1058.1 1307.23C1066.62 1303.95 1073.99 1299.38 1080.21 1293.53L1079.52 1292.8ZM1057.74 1306.3L1057.38 1305.37C1049.23 1308.56 1040.29 1310.16 1030.56 1310.16V1311.16V1312.16C1040.52 1312.16 1049.7 1310.52 1058.11 1307.23L1057.74 1306.3ZM1030.38 1286.32V1287.32C1036.14 1287.32 1041.43 1286.34 1046.24 1284.37L1045.86 1283.44L1045.48 1282.51C1040.94 1284.38 1035.91 1285.32 1030.38 1285.32V1286.32ZM1045.86 1283.44L1046.24 1284.37C1051.16 1282.4 1055.47 1279.56 1059.17 1275.87L1058.46 1275.16L1057.76 1274.45C1054.25 1277.96 1050.17 1280.64 1045.49 1282.51L1045.86 1283.44ZM1058.46 1275.16L1059.17 1275.87C1062.87 1272.17 1065.71 1267.79 1067.68 1262.74L1066.74 1262.38L1065.81 1262.02C1063.94 1266.81 1061.26 1270.95 1057.76 1274.45L1058.46 1275.16ZM1066.74 1262.38L1067.67 1262.76C1069.76 1257.71 1070.8 1252.11 1070.8 1246H1069.8H1068.8C1068.8 1251.89 1067.8 1257.21 1065.82 1262L1066.74 1262.38ZM1069.8 1246H1070.8C1070.8 1239.89 1069.76 1234.29 1067.67 1229.24L1066.74 1229.62L1065.82 1230C1067.8 1234.79 1068.8 1240.11 1068.8 1246H1069.8ZM1066.74 1229.62L1067.68 1229.26C1065.71 1224.21 1062.87 1219.83 1059.17 1216.13L1058.46 1216.84L1057.76 1217.55C1061.26 1221.05 1063.94 1225.19 1065.81 1229.98L1066.74 1229.62ZM1058.46 1216.84L1059.18 1216.14C1055.6 1212.44 1051.34 1209.6 1046.42 1207.63L1046.04 1208.56L1045.67 1209.49C1050.35 1211.36 1054.37 1214.04 1057.74 1217.54L1058.46 1216.84ZM1046.04 1208.56L1046.42 1207.63C1041.49 1205.66 1036.14 1204.68 1030.38 1204.68V1205.68V1206.68C1035.91 1206.68 1041 1207.62 1045.67 1209.49L1046.04 1208.56ZM1030.38 1205.68V1204.68C1024.63 1204.68 1019.28 1205.66 1014.35 1207.63L1014.72 1208.56L1015.1 1209.49C1019.77 1207.62 1024.86 1206.68 1030.38 1206.68V1205.68ZM1014.72 1208.56L1014.34 1207.63C1009.54 1209.61 1005.29 1212.44 1001.6 1216.13L1002.3 1216.84L1003.01 1217.55C1006.52 1214.04 1010.55 1211.35 1015.1 1209.49L1014.72 1208.56ZM1002.3 1216.84L1001.6 1216.13C997.9 1219.83 995.008 1224.2 992.92 1229.24L993.844 1229.62L994.768 1230C996.76 1225.2 999.508 1221.05 1003.01 1217.55L1002.3 1216.84ZM993.844 1229.62L992.912 1229.26C990.941 1234.31 989.964 1239.89 989.964 1246H990.964H991.964C991.964 1240.11 992.906 1234.77 994.775 1229.98L993.844 1229.62ZM990.964 1246H989.964C989.964 1251.99 990.942 1257.57 992.909 1262.74L993.844 1262.38L994.778 1262.02C992.905 1257.11 991.964 1251.77 991.964 1246H990.964ZM993.844 1262.38L992.92 1262.76C995.005 1267.79 997.832 1272.16 1001.4 1275.86L1002.12 1275.16L1002.84 1274.46C999.456 1270.96 996.763 1266.81 994.768 1262L993.844 1262.38ZM1002.12 1275.16L1001.42 1275.87C1005.11 1279.56 1009.43 1282.4 1014.35 1284.37L1014.72 1283.44L1015.1 1282.51C1010.42 1280.64 1006.33 1277.96 1002.83 1274.45L1002.12 1275.16ZM1014.72 1283.44L1014.35 1284.37C1019.28 1286.34 1024.63 1287.32 1030.38 1287.32V1286.32V1285.32C1024.86 1285.32 1019.77 1284.38 1015.1 1282.51L1014.72 1283.44ZM1147.44 1309L1146.49 1309.31L1146.71 1310H1147.44V1309ZM1106.22 1183V1182H1104.84L1105.27 1183.31L1106.22 1183ZM1136.46 1183L1137.41 1182.69L1137.19 1182H1136.46V1183ZM1172.28 1294.6V1295.6H1173.65L1173.23 1294.29L1172.28 1294.6ZM1157.16 1294.6L1156.21 1294.28L1155.77 1295.6H1157.16V1294.6ZM1194.6 1183V1182H1193.88L1193.65 1182.68L1194.6 1183ZM1221.6 1183L1222.55 1182.69L1222.32 1182H1221.6V1183ZM1257.6 1294.6V1295.6H1258.97L1258.55 1294.29L1257.6 1294.6ZM1243.02 1294.6L1242.07 1294.29L1241.63 1295.6H1243.02V1294.6ZM1279.74 1183V1182H1279.01L1278.79 1182.69L1279.74 1183ZM1307.64 1183L1308.59 1183.31L1309.02 1182H1307.64V1183ZM1266.42 1309V1310H1267.14L1267.37 1309.31L1266.42 1309ZM1235.1 1309L1234.14 1309.31L1234.37 1310H1235.1V1309ZM1203.24 1211.08V1210.08H1201.86L1202.28 1211.39L1203.24 1211.08ZM1211.52 1211.08L1212.46 1211.4L1212.9 1210.08H1211.52V1211.08ZM1178.76 1309V1310H1179.48L1179.7 1309.32L1178.76 1309ZM1147.44 1309L1148.39 1308.69L1107.17 1182.69L1106.22 1183L1105.27 1183.31L1146.49 1309.31L1147.44 1309ZM1106.22 1183V1184H1136.46V1183V1182H1106.22V1183ZM1136.46 1183L1135.5 1183.31L1171.32 1294.91L1172.28 1294.6L1173.23 1294.29L1137.41 1182.69L1136.46 1183ZM1172.28 1294.6V1293.6H1157.16V1294.6V1295.6H1172.28V1294.6ZM1157.16 1294.6L1158.1 1294.92L1195.54 1183.32L1194.6 1183L1193.65 1182.68L1156.21 1294.28L1157.16 1294.6ZM1194.6 1183V1184H1221.6V1183V1182H1194.6V1183ZM1221.6 1183L1220.64 1183.31L1256.64 1294.91L1257.6 1294.6L1258.55 1294.29L1222.55 1182.69L1221.6 1183ZM1257.6 1294.6V1293.6H1243.02V1294.6V1295.6H1257.6V1294.6ZM1243.02 1294.6L1243.97 1294.91L1280.69 1183.31L1279.74 1183L1278.79 1182.69L1242.07 1294.29L1243.02 1294.6ZM1279.74 1183V1184H1307.64V1183V1182H1279.74V1183ZM1307.64 1183L1306.69 1182.69L1265.47 1308.69L1266.42 1309L1267.37 1309.31L1308.59 1183.31L1307.64 1183ZM1266.42 1309V1308H1235.1V1309V1310H1266.42V1309ZM1235.1 1309L1236.05 1308.69L1204.19 1210.77L1203.24 1211.08L1202.28 1211.39L1234.14 1309.31L1235.1 1309ZM1203.24 1211.08V1212.08H1211.52V1211.08V1210.08H1203.24V1211.08ZM1211.52 1211.08L1210.57 1210.76L1177.81 1308.68L1178.76 1309L1179.7 1309.32L1212.46 1211.4L1211.52 1211.08ZM1178.76 1309V1308H1147.44V1309V1310H1178.76V1309Z" fill="#2065C7" mask="url(#path-4-outside-1_1_2)"/>
<circle cx="839" cy="1375" r="12.5" fill="#2065C7" stroke="#2065C7"/>
<circle cx="839" cy="1412" r="12.5" fill="#2065C7" stroke="#2065C7"/>
<circle cx="839" cy="1451" r="12.5" fill="#2065C7" stroke="#2065C7"/>
<circle cx="967" cy="1375" r="12.5" fill="#2065C7" stroke="#2065C7"/>
<circle cx="967" cy="1451" r="12.5" fill="#2065C7" stroke="#2065C7"/>
<circle cx="1006" cy="1412" r="12.5" fill="#2065C7" stroke="#2065C7"/>
<circle cx="1096" cy="1412" r="12.5" fill="#2065C7" stroke="#2065C7"/>
<circle cx="1135" cy="1375" r="12.5" fill="#2065C7" stroke="#2065C7"/>
<circle cx="1135" cy="1412" r="12.5" fill="#2065C7" stroke="#2065C7"/>
<circle cx="1135" cy="1451" r="12.5" fill="#2065C7" stroke="#2065C7"/>
<path d="M1244 1360.5C1249.22 1360.5 1253.5 1364.95 1253.5 1370.5C1253.5 1376.05 1249.22 1380.5 1244 1380.5C1238.78 1380.5 1234.5 1376.05 1234.5 1370.5C1234.5 1364.95 1238.78 1360.5 1244 1360.5Z" fill="#2065C7" stroke="#2065C7"/>
<mask id="path-17-outside-2_1_2" maskUnits="userSpaceOnUse" x="244" y="1114" width="1225" height="30" fill="black">
<rect fill="white" x="244" y="1114" width="1225" height="30"/>
<path d="M251 1136.57V1121H337.5V1136.57H251ZM337.5 1136.57V1121H424V1136.57H337.5ZM424 1136.57V1121H510.5V1136.57H424ZM510.5 1136.57V1121H597V1136.57H510.5ZM597 1136.57V1121H683.5V1136.57H597ZM683.5 1136.57V1121H770V1136.57H683.5ZM770 1136.57V1121H856.5V1136.57H770ZM856.5 1136.57V1121H943V1136.57H856.5ZM943 1136.57V1121H1029.5V1136.57H943ZM1029.5 1136.57V1121H1116V1136.57H1029.5ZM1116 1136.57V1121H1202.5V1136.57H1116ZM1202.5 1136.57V1121H1289V1136.57H1202.5ZM1289 1136.57V1121H1375.5V1136.57H1289ZM1375.5 1136.57V1121H1462V1136.57H1375.5Z"/>
</mask>
<path d="M251 1136.57V1121H337.5V1136.57H251ZM337.5 1136.57V1121H424V1136.57H337.5ZM424 1136.57V1121H510.5V1136.57H424ZM510.5 1136.57V1121H597V1136.57H510.5ZM597 1136.57V1121H683.5V1136.57H597ZM683.5 1136.57V1121H770V1136.57H683.5ZM770 1136.57V1121H856.5V1136.57H770ZM856.5 1136.57V1121H943V1136.57H856.5ZM943 1136.57V1121H1029.5V1136.57H943ZM1029.5 1136.57V1121H1116V1136.57H1029.5ZM1116 1136.57V1121H1202.5V1136.57H1116ZM1202.5 1136.57V1121H1289V1136.57H1202.5ZM1289 1136.57V1121H1375.5V1136.57H1289ZM1375.5 1136.57V1121H1462V1136.57H1375.5Z" fill="#2065C7"/>
<path d="M251 1136.57H244C244 1140.44 247.134 1143.57 251 1143.57V1136.57ZM251 1121V1114C247.134 1114 244 1117.13 244 1121H251ZM337.5 1121H344.5C344.5 1117.13 341.366 1114 337.5 1114V1121ZM337.5 1136.57V1143.57C341.366 1143.57 344.5 1140.44 344.5 1136.57H337.5ZM251 1136.57H258V1121H251H244V1136.57H251ZM251 1121V1128H337.5V1121V1114H251V1121ZM337.5 1121H330.5V1136.57H337.5H344.5V1121H337.5ZM337.5 1136.57V1129.57H251V1136.57V1143.57H337.5V1136.57ZM337.5 1136.57H330.5C330.5 1140.44 333.634 1143.57 337.5 1143.57V1136.57ZM337.5 1121V1114C333.634 1114 330.5 1117.13 330.5 1121H337.5ZM424 1121H431C431 1117.13 427.866 1114 424 1114V1121ZM424 1136.57V1143.57C427.866 1143.57 431 1140.44 431 1136.57H424ZM337.5 1136.57H344.5V1121H337.5H330.5V1136.57H337.5ZM337.5 1121V1128H424V1121V1114H337.5V1121ZM424 1121H417V1136.57H424H431V1121H424ZM424 1136.57V1129.57H337.5V1136.57V1143.57H424V1136.57ZM424 1136.57H417C417 1140.44 420.134 1143.57 424 1143.57V1136.57ZM424 1121V1114C420.134 1114 417 1117.13 417 1121H424ZM510.5 1121H517.5C517.5 1117.13 514.366 1114 510.5 1114V1121ZM510.5 1136.57V1143.57C514.366 1143.57 517.5 1140.44 517.5 1136.57H510.5ZM424 1136.57H431V1121H424H417V1136.57H424ZM424 1121V1128H510.5V1121V1114H424V1121ZM510.5 1121H503.5V1136.57H510.5H517.5V1121H510.5ZM510.5 1136.57V1129.57H424V1136.57V1143.57H510.5V1136.57ZM510.5 1136.57H503.5C503.5 1140.44 506.634 1143.57 510.5 1143.57V1136.57ZM510.5 1121V1114C506.634 1114 503.5 1117.13 503.5 1121H510.5ZM597 1121H604C604 1117.13 600.866 1114 597 1114V1121ZM597 1136.57V1143.57C600.866 1143.57 604 1140.44 604 1136.57H597ZM510.5 1136.57H517.5V1121H510.5H503.5V1136.57H510.5ZM510.5 1121V1128H597V1121V1114H510.5V1121ZM597 1121H590V1136.57H597H604V1121H597ZM597 1136.57V1129.57H510.5V1136.57V1143.57H597V1136.57ZM597 1136.57H590C590 1140.44 593.134 1143.57 597 1143.57V1136.57ZM597 1121V1114C593.134 1114 590 1117.13 590 1121H597ZM683.5 1121H690.5C690.5 1117.13 687.366 1114 683.5 1114V1121ZM683.5 1136.57V1143.57C687.366 1143.57 690.5 1140.44 690.5 1136.57H683.5ZM597 1136.57H604V1121H597H590V1136.57H597ZM597 1121V1128H683.5V1121V1114H597V1121ZM683.5 1121H676.5V1136.57H683.5H690.5V1121H683.5ZM683.5 1136.57V1129.57H597V1136.57V1143.57H683.5V1136.57ZM683.5 1136.57H676.5C676.5 1140.44 679.634 1143.57 683.5 1143.57V1136.57ZM683.5 1121V1114C679.634 1114 676.5 1117.13 676.5 1121H683.5ZM770 1121H777C777 1117.13 773.866 1114 770 1114V1121ZM770 1136.57V1143.57C773.866 1143.57 777 1140.44 777 1136.57H770ZM683.5 1136.57H690.5V1121H683.5H676.5V1136.57H683.5ZM683.5 1121V1128H770V1121V1114H683.5V1121ZM770 1121H763V1136.57H770H777V1121H770ZM770 1136.57V1129.57H683.5V1136.57V1143.57H770V1136.57ZM770 1136.57H763C763 1140.44 766.134 1143.57 770 1143.57V1136.57ZM770 1121V1114C766.134 1114 763 1117.13 763 1121H770ZM856.5 1121H863.5C863.5 1117.13 860.366 1114 856.5 1114V1121ZM856.5 1136.57V1143.57C860.366 1143.57 863.5 1140.44 863.5 1136.57H856.5ZM770 1136.57H777V1121H770H763V1136.57H770ZM770 1121V1128H856.5V1121V1114H770V1121ZM856.5 1121H849.5V1136.57H856.5H863.5V1121H856.5ZM856.5 1136.57V1129.57H770V1136.57V1143.57H856.5V1136.57ZM856.5 1136.57H849.5C849.5 1140.44 852.634 1143.57 856.5 1143.57V1136.57ZM856.5 1121V1114C852.634 1114 849.5 1117.13 849.5 1121H856.5ZM943 1121H950C950 1117.13 946.866 1114 943 1114V1121ZM943 1136.57V1143.57C946.866 1143.57 950 1140.44 950 1136.57H943ZM856.5 1136.57H863.5V1121H856.5H849.5V1136.57H856.5ZM856.5 1121V1128H943V1121V1114H856.5V1121ZM943 1121H936V1136.57H943H950V1121H943ZM943 1136.57V1129.57H856.5V1136.57V1143.57H943V1136.57ZM943 1136.57H936C936 1140.44 939.134 1143.57 943 1143.57V1136.57ZM943 1121V1114C939.134 1114 936 1117.13 936 1121H943ZM1029.5 1121H1036.5C1036.5 1117.13 1033.37 1114 1029.5 1114V1121ZM1029.5 1136.57V1143.57C1033.37 1143.57 1036.5 1140.44 1036.5 1136.57H1029.5ZM943 1136.57H950V1121H943H936V1136.57H943ZM943 1121V1128H1029.5V1121V1114H943V1121ZM1029.5 1121H1022.5V1136.57H1029.5H1036.5V1121H1029.5ZM1029.5 1136.57V1129.57H943V1136.57V1143.57H1029.5V1136.57ZM1029.5 1136.57H1022.5C1022.5 1140.44 1025.63 1143.57 1029.5 1143.57V1136.57ZM1029.5 1121V1114C1025.63 1114 1022.5 1117.13 1022.5 1121H1029.5ZM1116 1121H1123C1123 1117.13 1119.87 1114 1116 1114V1121ZM1116 1136.57V1143.57C1119.87 1143.57 1123 1140.44 1123 1136.57H1116ZM1029.5 1136.57H1036.5V1121H1029.5H1022.5V1136.57H1029.5ZM1029.5 1121V1128H1116V1121V1114H1029.5V1121ZM1116 1121H1109V1136.57H1116H1123V1121H1116ZM1116 1136.57V1129.57H1029.5V1136.57V1143.57H1116V1136.57ZM1116 1136.57H1109C1109 1140.44 1112.13 1143.57 1116 1143.57V1136.57ZM1116 1121V1114C1112.13 1114 1109 1117.13 1109 1121H1116ZM1202.5 1121H1209.5C1209.5 1117.13 1206.37 1114 1202.5 1114V1121ZM1202.5 1136.57V1143.57C1206.37 1143.57 1209.5 1140.44 1209.5 1136.57H1202.5ZM1116 1136.57H1123V1121H1116H1109V1136.57H1116ZM1116 1121V1128H1202.5V1121V1114H1116V1121ZM1202.5 1121H1195.5V1136.57H1202.5H1209.5V1121H1202.5ZM1202.5 1136.57V1129.57H1116V1136.57V1143.57H1202.5V1136.57ZM1202.5 1136.57H1195.5C1195.5 1140.44 1198.63 1143.57 1202.5 1143.57V1136.57ZM1202.5 1121V1114C1198.63 1114 1195.5 1117.13 1195.5 1121H1202.5ZM1289 1121H1296C1296 1117.13 1292.87 1114 1289 1114V1121ZM1289 1136.57V1143.57C1292.87 1143.57 1296 1140.44 1296 1136.57H1289ZM1202.5 1136.57H1209.5V1121H1202.5H1195.5V1136.57H1202.5ZM1202.5 1121V1128H1289V1121V1114H1202.5V1121ZM1289 1121H1282V1136.57H1289H1296V1121H1289ZM1289 1136.57V1129.57H1202.5V1136.57V1143.57H1289V1136.57ZM1289 1136.57H1282C1282 1140.44 1285.13 1143.57 1289 1143.57V1136.57ZM1289 1121V1114C1285.13 1114 1282 1117.13 1282 1121H1289ZM1375.5 1121H1382.5C1382.5 1117.13 1379.37 1114 1375.5 1114V1121ZM1375.5 1136.57V1143.57C1379.37 1143.57 1382.5 1140.44 1382.5 1136.57H1375.5ZM1289 1136.57H1296V1121H1289H1282V1136.57H1289ZM1289 1121V1128H1375.5V1121V1114H1289V1121ZM1375.5 1121H1368.5V1136.57H1375.5H1382.5V1121H1375.5ZM1375.5 1136.57V1129.57H1289V1136.57V1143.57H1375.5V1136.57ZM1375.5 1136.57H1368.5C1368.5 1140.44 1371.63 1143.57 1375.5 1143.57V1136.57ZM1375.5 1121V1114C1371.63 1114 1368.5 1117.13 1368.5 1121H1375.5ZM1462 1121H1469C1469 1117.13 1465.87 1114 1462 1114V1121ZM1462 1136.57V1143.57C1465.87 1143.57 1469 1140.44 1469 1136.57H1462ZM1375.5 1136.57H1382.5V1121H1375.5H1368.5V1136.57H1375.5ZM1375.5 1121V1128H1462V1121V1114H1375.5V1121ZM1462 1121H1455V1136.57H1462H1469V1121H1462ZM1462 1136.57V1129.57H1375.5V1136.57V1143.57H1462V1136.57Z" fill="#2065C7" mask="url(#path-17-outside-2_1_2)"/>
<circle cx="491" cy="1375" r="12.5" fill="#2065C7" stroke="#2065C7"/>
<circle cx="748" cy="1375" r="12.5" fill="#2065C7" stroke="#2065C7"/>
<circle cx="709" cy="1451" r="12.5" fill="#2065C7" stroke="#2065C7"/>
<circle cx="709" cy="1412" r="12.5" fill="#2065C7" stroke="#2065C7"/>
<circle cx="451" cy="1451" r="12.5" fill="#2065C7" stroke="#2065C7"/>
<circle cx="451" cy="1375" r="12.5" fill="#2065C7" stroke="#2065C7"/>
<circle cx="580" cy="1375" r="12.5" fill="#2065C7" stroke="#2065C7"/>
<path d="M1239.5 1385.5C1239 1385.5 1239 1386 1238.5 1386.5C1237.7 1386.5 1236.5 1388.5 1236 1389.5V1427C1236 1429.8 1238.33 1430.5 1239.5 1430.5H1265L1278.5 1453C1280.67 1453.33 1285.1 1453 1285.5 1449C1285.9 1445 1274.67 1428.33 1269 1420.5H1255L1254.5 1409.5H1270.5C1271.67 1409.17 1274 1407.6 1274 1404C1274 1400.4 1271 1399.5 1269.5 1399.5H1251.5V1396.5V1394.5C1251.5 1394.1 1250.83 1393.67 1250.5 1393.5V1392.5V1391.5V1389C1250.5 1387.8 1248.5 1386.17 1247.5 1385.5H1239.5Z" fill="#2065C7" stroke="#2065C7"/>
<path d="M1228 1411C1226 1408.6 1221.83 1410.67 1220 1412C1198.5 1432 1213.5 1453.5 1218.5 1457C1244.5 1473 1258 1453.5 1261 1451C1264 1448.5 1263.5 1442 1260 1441C1257.2 1440.2 1254.17 1442.67 1253 1444C1248.67 1450 1237.1 1459.2 1225.5 1448C1211 1434 1225 1421 1226.5 1419.5C1228 1418 1230.5 1414 1228 1411Z" fill="#2065C7" stroke="#2065C7"/>
</svg>
